M48
;DRILL file {KiCad 4.0.0-stable} date 19.01.2016 13:33:46
;FORMAT={-:-/ absolute / inch / decimal}
FMAT,2
INCH,TZ
T1C0.024
T2C0.028
T3C0.031
T4C0.032
T5C0.035
T6C0.039
T7C0.083
T8C0.138
%
G90
G05
M72
T1
X5.025Y-3.35
X5.275Y-3.525
X5.425Y-3.575
X5.497Y-4.322
X5.625Y-3.55
X5.675Y-4.282
X5.778Y-4.285
X5.876Y-3.923
X6.025Y-3.125
T2
X5.175Y-4.
X5.175Y-4.2
X5.875Y-2.75
X6.075Y-2.75
T3
X4.425Y-3.4561
X4.425Y-3.5939
X4.925Y-3.4561
X4.925Y-3.5939
T4
X4.525Y-3.8
X4.525Y-4.1
X4.625Y-3.8
X4.625Y-4.1
X4.625Y-4.25
X4.625Y-4.375
X4.625Y-4.5
X4.675Y-3.4
X4.675Y-3.6
X4.725Y-3.8
X4.725Y-4.1
X4.825Y-3.8
X4.825Y-4.1
X4.875Y-2.625
X4.875Y-3.025
X5.Y-3.9
X5.Y-4.1
X5.025Y-2.625
X5.025Y-3.025
X5.025Y-4.25
X5.025Y-4.375
X5.025Y-4.5
X5.175Y-2.625
X5.175Y-3.025
X5.175Y-3.45
X5.175Y-3.85
X5.325Y-2.625
X5.325Y-2.75
X5.375Y-2.9
X5.375Y-3.2
X5.375Y-3.35
X5.375Y-3.65
X5.375Y-3.8
X5.375Y-4.1
X5.475Y-2.9
X5.475Y-3.2
X5.475Y-3.35
X5.475Y-3.65
X5.475Y-3.8
X5.475Y-4.1
X5.575Y-2.9
X5.575Y-3.2
X5.575Y-3.35
X5.575Y-3.65
X5.575Y-3.8
X5.575Y-4.1
X5.675Y-2.9
X5.675Y-3.2
X5.675Y-3.35
X5.675Y-3.65
X5.675Y-3.8
X5.675Y-4.1
X5.725Y-2.625
X5.725Y-2.75
X5.775Y-2.9
X5.775Y-3.2
X5.775Y-3.35
X5.775Y-3.65
X5.775Y-3.8
X5.775Y-4.1
X5.875Y-2.9
X5.875Y-3.2
X5.875Y-3.35
X5.875Y-3.65
X5.875Y-3.8
X5.875Y-4.1
X5.975Y-2.9
X5.975Y-3.2
X5.975Y-3.35
X5.975Y-3.65
X5.975Y-3.8
X5.975Y-4.1
X6.075Y-2.9
X6.075Y-3.2
X6.075Y-3.35
X6.075Y-3.65
X6.075Y-3.8
X6.075Y-4.1
X6.075Y-4.3
X6.075Y-4.5
T5
X4.4Y-3.2124
X4.5Y-3.2124
T6
X4.3Y-3.85
X4.3Y-3.95
X4.3Y-4.05
X4.3Y-4.15
X4.45Y-5.
X4.45Y-5.1
X4.45Y-5.2
X4.45Y-5.3
X4.45Y-5.4
X4.45Y-5.5
X4.45Y-5.6
X4.45Y-5.7
X4.45Y-5.8
X4.45Y-5.9
X4.45Y-6.
X4.45Y-6.1
X4.45Y-6.2
X4.45Y-6.3
X4.55Y-5.
X4.55Y-5.1
X4.55Y-5.2
X4.55Y-5.3
X4.55Y-5.4
X4.55Y-5.5
X4.55Y-5.6
X4.55Y-5.7
X4.55Y-5.8
X4.55Y-5.9
X4.55Y-6.
X4.55Y-6.1
X4.55Y-6.2
X4.55Y-6.3
X4.65Y-5.
X4.65Y-5.1
X4.65Y-5.2
X4.65Y-5.3
X4.65Y-5.4
X4.65Y-5.5
X4.65Y-5.6
X4.65Y-5.7
X4.65Y-5.8
X4.65Y-5.9
X4.65Y-6.
X4.65Y-6.1
X4.65Y-6.2
X4.65Y-6.3
X4.875Y-3.15
X4.875Y-3.25
X5.025Y-3.15
X5.025Y-3.25
X5.05Y-5.
X5.05Y-5.1
X5.05Y-5.2
X5.05Y-5.3
X5.05Y-5.4
X5.05Y-5.5
X5.05Y-5.6
X5.05Y-5.7
X5.05Y-5.8
X5.05Y-5.9
X5.05Y-6.
X5.05Y-6.1
X5.05Y-6.2
X5.05Y-6.3
X5.175Y-3.15
X5.175Y-3.25
X5.175Y-4.45
X5.275Y-4.45
X5.35Y-5.
X5.35Y-5.1
X5.35Y-5.2
X5.35Y-5.3
X5.35Y-5.4
X5.35Y-5.5
X5.35Y-5.6
X5.35Y-5.7
X5.35Y-5.8
X5.35Y-5.9
X5.35Y-6.
X5.35Y-6.1
X5.35Y-6.2
X5.35Y-6.3
X5.375Y-4.45
X5.475Y-4.45
X5.575Y-4.45
X5.675Y-4.45
X5.75Y-5.
X5.75Y-5.1
X5.75Y-5.2
X5.75Y-5.3
X5.75Y-5.4
X5.75Y-5.5
X5.75Y-5.6
X5.75Y-5.7
X5.75Y-5.8
X5.75Y-5.9
X5.75Y-6.
X5.75Y-6.1
X5.75Y-6.2
X5.75Y-6.3
X5.775Y-4.45
X5.85Y-5.
X5.85Y-5.1
X5.85Y-5.2
X5.85Y-5.3
X5.85Y-5.4
X5.85Y-5.5
X5.85Y-5.6
X5.85Y-5.7
X5.85Y-5.8
X5.85Y-5.9
X5.85Y-6.
X5.85Y-6.1
X5.85Y-6.2
X5.85Y-6.3
X5.875Y-4.45
X5.95Y-5.
X5.95Y-5.1
X5.95Y-5.2
X5.95Y-5.3
X5.95Y-5.4
X5.95Y-5.5
X5.95Y-5.6
X5.95Y-5.7
X5.95Y-5.8
X5.95Y-5.9
X5.95Y-6.
X5.95Y-6.1
X5.95Y-6.2
X5.95Y-6.3
T7
X4.3Y-3.0124
X4.7Y-3.0124
T8
X4.38Y-4.425
X4.38Y-4.8
X6.03Y-4.8
T0
M30
