G04 #@! TF.FileFunction,Soldermask,Bot*
%FSLAX46Y46*%
G04 Gerber Fmt 4.6, Leading zero omitted, Abs format (unit mm)*
G04 Created by KiCad (PCBNEW 4.0.0-stable) date 19.01.2016 13:51:47*
%MOMM*%
G01*
G04 APERTURE LIST*
%ADD10C,0.100000*%
%ADD11C,0.150000*%
%ADD12C,1.900000*%
%ADD13C,2.500000*%
%ADD14R,2.200000X2.200000*%
%ADD15C,2.200000*%
%ADD16C,1.901140*%
%ADD17R,2.599640X1.924000*%
%ADD18O,2.599640X1.924000*%
%ADD19R,1.924000X2.599640*%
%ADD20O,1.924000X2.599640*%
%ADD21C,2.398980*%
%ADD22O,1.901140X2.599640*%
%ADD23C,0.254000*%
G04 APERTURE END LIST*
D10*
D11*
X156972000Y-162560000D02*
X107442000Y-162560000D01*
X156972000Y-64516000D02*
X156972000Y-162560000D01*
X107442000Y-64516000D02*
X156972000Y-64516000D01*
X107442000Y-162560000D02*
X107442000Y-64516000D01*
D12*
X114300000Y-81595000D03*
X111760000Y-81595000D03*
D13*
X109220000Y-76515000D03*
X119380000Y-76515000D03*
D14*
X112395000Y-91285000D03*
D15*
X112395000Y-87785000D03*
X154305000Y-69850000D03*
X149225000Y-69850000D03*
X131445000Y-101600000D03*
X131445000Y-106680000D03*
D16*
X118745000Y-86360000D03*
X118745000Y-91440000D03*
X127000000Y-99060000D03*
X127000000Y-104140000D03*
X154305000Y-114300000D03*
X154305000Y-109220000D03*
D17*
X131445000Y-80010000D03*
D18*
X131445000Y-82550000D03*
D17*
X127635000Y-80010000D03*
D18*
X127635000Y-82550000D03*
D17*
X123825000Y-80010000D03*
D18*
X123825000Y-82550000D03*
D19*
X149225000Y-113030000D03*
D20*
X146685000Y-113030000D03*
X144145000Y-113030000D03*
X141605000Y-113030000D03*
X139065000Y-113030000D03*
X136525000Y-113030000D03*
X133985000Y-113030000D03*
X131445000Y-113030000D03*
D17*
X109220000Y-102870000D03*
D18*
X109220000Y-105410000D03*
D17*
X109220000Y-100330000D03*
D18*
X109220000Y-97790000D03*
D21*
X145415000Y-66675000D03*
X135255000Y-66675000D03*
X145415000Y-69850000D03*
X135255000Y-69850000D03*
X131445000Y-97790000D03*
X131445000Y-87630000D03*
X127635000Y-107950000D03*
X117475000Y-107950000D03*
X117475000Y-111125000D03*
X127635000Y-111125000D03*
X117475000Y-114300000D03*
X127635000Y-114300000D03*
X131445000Y-66675000D03*
X131445000Y-76835000D03*
X127635000Y-66675000D03*
X127635000Y-76835000D03*
X123825000Y-66675000D03*
X123825000Y-76835000D03*
D22*
X136525000Y-81280000D03*
X139065000Y-81280000D03*
X141605000Y-81280000D03*
X144145000Y-81280000D03*
X146685000Y-81280000D03*
X149225000Y-81280000D03*
X151765000Y-81280000D03*
X154305000Y-81280000D03*
X154305000Y-73660000D03*
X151765000Y-73660000D03*
X149225000Y-73660000D03*
X146685000Y-73660000D03*
X144145000Y-73660000D03*
X141605000Y-73660000D03*
X139065000Y-73660000D03*
X136525000Y-73660000D03*
X136525000Y-92710000D03*
X139065000Y-92710000D03*
X141605000Y-92710000D03*
X144145000Y-92710000D03*
X146685000Y-92710000D03*
X149225000Y-92710000D03*
X151765000Y-92710000D03*
X154305000Y-92710000D03*
X154305000Y-85090000D03*
X151765000Y-85090000D03*
X149225000Y-85090000D03*
X146685000Y-85090000D03*
X144145000Y-85090000D03*
X141605000Y-85090000D03*
X139065000Y-85090000D03*
X136525000Y-85090000D03*
X136525000Y-104140000D03*
X139065000Y-104140000D03*
X141605000Y-104140000D03*
X144145000Y-104140000D03*
X146685000Y-104140000D03*
X149225000Y-104140000D03*
X151765000Y-104140000D03*
X154305000Y-104140000D03*
X154305000Y-96520000D03*
X151765000Y-96520000D03*
X149225000Y-96520000D03*
X146685000Y-96520000D03*
X144145000Y-96520000D03*
X141605000Y-96520000D03*
X139065000Y-96520000D03*
X136525000Y-96520000D03*
X114935000Y-104140000D03*
X117475000Y-104140000D03*
X120015000Y-104140000D03*
X122555000Y-104140000D03*
X122555000Y-96520000D03*
X120015000Y-96520000D03*
X117475000Y-96520000D03*
X114935000Y-96520000D03*
D14*
X125095000Y-91285000D03*
D15*
X125095000Y-87785000D03*
D19*
X113030000Y-127000000D03*
D20*
X115570000Y-127000000D03*
X118110000Y-127000000D03*
D19*
X113030000Y-129540000D03*
D20*
X115570000Y-129540000D03*
X118110000Y-129540000D03*
D19*
X113030000Y-132080000D03*
D20*
X115570000Y-132080000D03*
X118110000Y-132080000D03*
D19*
X113030000Y-134620000D03*
D20*
X115570000Y-134620000D03*
X118110000Y-134620000D03*
D19*
X113030000Y-137160000D03*
D20*
X115570000Y-137160000D03*
X118110000Y-137160000D03*
D19*
X113030000Y-139700000D03*
D20*
X115570000Y-139700000D03*
X118110000Y-139700000D03*
D19*
X113030000Y-142240000D03*
D20*
X115570000Y-142240000D03*
X118110000Y-142240000D03*
D19*
X113030000Y-144780000D03*
D20*
X115570000Y-144780000D03*
X118110000Y-144780000D03*
D19*
X113030000Y-147320000D03*
D20*
X115570000Y-147320000D03*
X118110000Y-147320000D03*
D19*
X113030000Y-149860000D03*
D20*
X115570000Y-149860000D03*
X118110000Y-149860000D03*
D19*
X113030000Y-152400000D03*
D20*
X115570000Y-152400000D03*
X118110000Y-152400000D03*
D19*
X113030000Y-154940000D03*
D20*
X115570000Y-154940000D03*
X118110000Y-154940000D03*
D19*
X113030000Y-157480000D03*
D20*
X115570000Y-157480000D03*
X118110000Y-157480000D03*
D19*
X113030000Y-160020000D03*
D20*
X115570000Y-160020000D03*
X118110000Y-160020000D03*
D19*
X151130000Y-160020000D03*
D20*
X148590000Y-160020000D03*
X146050000Y-160020000D03*
D19*
X151130000Y-157480000D03*
D20*
X148590000Y-157480000D03*
X146050000Y-157480000D03*
D19*
X151130000Y-154940000D03*
D20*
X148590000Y-154940000D03*
X146050000Y-154940000D03*
D19*
X151130000Y-152400000D03*
D20*
X148590000Y-152400000D03*
X146050000Y-152400000D03*
D19*
X151130000Y-149860000D03*
D20*
X148590000Y-149860000D03*
X146050000Y-149860000D03*
D19*
X151130000Y-147320000D03*
D20*
X148590000Y-147320000D03*
X146050000Y-147320000D03*
D19*
X151130000Y-144780000D03*
D20*
X148590000Y-144780000D03*
X146050000Y-144780000D03*
D19*
X151130000Y-142240000D03*
D20*
X148590000Y-142240000D03*
X146050000Y-142240000D03*
D19*
X151130000Y-139700000D03*
D20*
X148590000Y-139700000D03*
X146050000Y-139700000D03*
D19*
X151130000Y-137160000D03*
D20*
X148590000Y-137160000D03*
X146050000Y-137160000D03*
D19*
X151130000Y-134620000D03*
D20*
X148590000Y-134620000D03*
X146050000Y-134620000D03*
D19*
X151130000Y-132080000D03*
D20*
X148590000Y-132080000D03*
X146050000Y-132080000D03*
D19*
X151130000Y-129540000D03*
D20*
X148590000Y-129540000D03*
X146050000Y-129540000D03*
D19*
X151130000Y-127000000D03*
D20*
X148590000Y-127000000D03*
X146050000Y-127000000D03*
D17*
X128270000Y-127000000D03*
X128270000Y-129540000D03*
X128270000Y-132080000D03*
X128270000Y-134620000D03*
X128270000Y-137160000D03*
X128270000Y-139700000D03*
X128270000Y-142240000D03*
X128270000Y-144780000D03*
X128270000Y-147320000D03*
X128270000Y-149860000D03*
X128270000Y-152400000D03*
X128270000Y-154940000D03*
X128270000Y-157480000D03*
X128270000Y-160020000D03*
X135890000Y-160020000D03*
X135890000Y-157480000D03*
X135890000Y-154940000D03*
X135890000Y-152400000D03*
X135890000Y-149860000D03*
X135890000Y-147320000D03*
X135890000Y-144780000D03*
X135890000Y-142240000D03*
X135890000Y-139700000D03*
X135890000Y-137160000D03*
X135890000Y-134620000D03*
X135890000Y-132080000D03*
X135890000Y-129540000D03*
X135890000Y-127000000D03*
D23*
G36*
X116840000Y-121793000D02*
X115189000Y-121793000D01*
X115189000Y-116332000D01*
X116840000Y-116332000D01*
X116840000Y-121793000D01*
X116840000Y-121793000D01*
G37*
X116840000Y-121793000D02*
X115189000Y-121793000D01*
X115189000Y-116332000D01*
X116840000Y-116332000D01*
X116840000Y-121793000D01*
G36*
X149860000Y-121793000D02*
X148209000Y-121793000D01*
X148209000Y-116332000D01*
X149860000Y-116332000D01*
X149860000Y-121793000D01*
X149860000Y-121793000D01*
G37*
X149860000Y-121793000D02*
X148209000Y-121793000D01*
X148209000Y-116332000D01*
X149860000Y-116332000D01*
X149860000Y-121793000D01*
M02*
