G04 #@! TF.FileFunction,Copper,L1,Top,Signal*
%FSLAX46Y46*%
G04 Gerber Fmt 4.6, Leading zero omitted, Abs format (unit mm)*
G04 Created by KiCad (PCBNEW 4.0.0-stable) date 19.01.2016 13:51:47*
%MOMM*%
G01*
G04 APERTURE LIST*
%ADD10C,0.100000*%
%ADD11C,0.150000*%
%ADD12C,1.500000*%
%ADD13C,2.100000*%
%ADD14R,1.800000X1.800000*%
%ADD15C,1.800000*%
%ADD16C,1.501140*%
%ADD17R,2.199640X1.524000*%
%ADD18O,2.199640X1.524000*%
%ADD19R,1.524000X2.199640*%
%ADD20O,1.524000X2.199640*%
%ADD21C,1.998980*%
%ADD22O,1.501140X2.199640*%
%ADD23C,3.500120*%
%ADD24C,1.000000*%
%ADD25C,0.800000*%
%ADD26C,0.400000*%
G04 APERTURE END LIST*
D10*
D11*
X156972000Y-162560000D02*
X107442000Y-162560000D01*
X156972000Y-64516000D02*
X156972000Y-162560000D01*
X107442000Y-64516000D02*
X156972000Y-64516000D01*
X107442000Y-162560000D02*
X107442000Y-64516000D01*
D12*
X114300000Y-81595000D03*
X111760000Y-81595000D03*
D13*
X109220000Y-76515000D03*
X119380000Y-76515000D03*
D14*
X112395000Y-91285000D03*
D15*
X112395000Y-87785000D03*
X154305000Y-69850000D03*
X149225000Y-69850000D03*
X131445000Y-101600000D03*
X131445000Y-106680000D03*
D16*
X118745000Y-86360000D03*
X118745000Y-91440000D03*
X127000000Y-99060000D03*
X127000000Y-104140000D03*
X154305000Y-114300000D03*
X154305000Y-109220000D03*
D17*
X131445000Y-80010000D03*
D18*
X131445000Y-82550000D03*
D17*
X127635000Y-80010000D03*
D18*
X127635000Y-82550000D03*
D17*
X123825000Y-80010000D03*
D18*
X123825000Y-82550000D03*
D19*
X149225000Y-113030000D03*
D20*
X146685000Y-113030000D03*
X144145000Y-113030000D03*
X141605000Y-113030000D03*
X139065000Y-113030000D03*
X136525000Y-113030000D03*
X133985000Y-113030000D03*
X131445000Y-113030000D03*
D17*
X109220000Y-102870000D03*
D18*
X109220000Y-105410000D03*
D17*
X109220000Y-100330000D03*
D18*
X109220000Y-97790000D03*
D21*
X145415000Y-66675000D03*
X135255000Y-66675000D03*
X145415000Y-69850000D03*
X135255000Y-69850000D03*
X131445000Y-97790000D03*
X131445000Y-87630000D03*
X127635000Y-107950000D03*
X117475000Y-107950000D03*
X117475000Y-111125000D03*
X127635000Y-111125000D03*
X117475000Y-114300000D03*
X127635000Y-114300000D03*
X131445000Y-66675000D03*
X131445000Y-76835000D03*
X127635000Y-66675000D03*
X127635000Y-76835000D03*
X123825000Y-66675000D03*
X123825000Y-76835000D03*
D22*
X136525000Y-81280000D03*
X139065000Y-81280000D03*
X141605000Y-81280000D03*
X144145000Y-81280000D03*
X146685000Y-81280000D03*
X149225000Y-81280000D03*
X151765000Y-81280000D03*
X154305000Y-81280000D03*
X154305000Y-73660000D03*
X151765000Y-73660000D03*
X149225000Y-73660000D03*
X146685000Y-73660000D03*
X144145000Y-73660000D03*
X141605000Y-73660000D03*
X139065000Y-73660000D03*
X136525000Y-73660000D03*
X136525000Y-92710000D03*
X139065000Y-92710000D03*
X141605000Y-92710000D03*
X144145000Y-92710000D03*
X146685000Y-92710000D03*
X149225000Y-92710000D03*
X151765000Y-92710000D03*
X154305000Y-92710000D03*
X154305000Y-85090000D03*
X151765000Y-85090000D03*
X149225000Y-85090000D03*
X146685000Y-85090000D03*
X144145000Y-85090000D03*
X141605000Y-85090000D03*
X139065000Y-85090000D03*
X136525000Y-85090000D03*
X136525000Y-104140000D03*
X139065000Y-104140000D03*
X141605000Y-104140000D03*
X144145000Y-104140000D03*
X146685000Y-104140000D03*
X149225000Y-104140000D03*
X151765000Y-104140000D03*
X154305000Y-104140000D03*
X154305000Y-96520000D03*
X151765000Y-96520000D03*
X149225000Y-96520000D03*
X146685000Y-96520000D03*
X144145000Y-96520000D03*
X141605000Y-96520000D03*
X139065000Y-96520000D03*
X136525000Y-96520000D03*
X114935000Y-104140000D03*
X117475000Y-104140000D03*
X120015000Y-104140000D03*
X122555000Y-104140000D03*
X122555000Y-96520000D03*
X120015000Y-96520000D03*
X117475000Y-96520000D03*
X114935000Y-96520000D03*
D14*
X125095000Y-91285000D03*
D15*
X125095000Y-87785000D03*
D19*
X113030000Y-127000000D03*
D20*
X115570000Y-127000000D03*
X118110000Y-127000000D03*
D19*
X113030000Y-129540000D03*
D20*
X115570000Y-129540000D03*
X118110000Y-129540000D03*
D19*
X113030000Y-132080000D03*
D20*
X115570000Y-132080000D03*
X118110000Y-132080000D03*
D19*
X113030000Y-134620000D03*
D20*
X115570000Y-134620000D03*
X118110000Y-134620000D03*
D19*
X113030000Y-137160000D03*
D20*
X115570000Y-137160000D03*
X118110000Y-137160000D03*
D19*
X113030000Y-139700000D03*
D20*
X115570000Y-139700000D03*
X118110000Y-139700000D03*
D19*
X113030000Y-142240000D03*
D20*
X115570000Y-142240000D03*
X118110000Y-142240000D03*
D19*
X113030000Y-144780000D03*
D20*
X115570000Y-144780000D03*
X118110000Y-144780000D03*
D19*
X113030000Y-147320000D03*
D20*
X115570000Y-147320000D03*
X118110000Y-147320000D03*
D19*
X113030000Y-149860000D03*
D20*
X115570000Y-149860000D03*
X118110000Y-149860000D03*
D19*
X113030000Y-152400000D03*
D20*
X115570000Y-152400000D03*
X118110000Y-152400000D03*
D19*
X113030000Y-154940000D03*
D20*
X115570000Y-154940000D03*
X118110000Y-154940000D03*
D19*
X113030000Y-157480000D03*
D20*
X115570000Y-157480000D03*
X118110000Y-157480000D03*
D19*
X113030000Y-160020000D03*
D20*
X115570000Y-160020000D03*
X118110000Y-160020000D03*
D19*
X151130000Y-160020000D03*
D20*
X148590000Y-160020000D03*
X146050000Y-160020000D03*
D19*
X151130000Y-157480000D03*
D20*
X148590000Y-157480000D03*
X146050000Y-157480000D03*
D19*
X151130000Y-154940000D03*
D20*
X148590000Y-154940000D03*
X146050000Y-154940000D03*
D19*
X151130000Y-152400000D03*
D20*
X148590000Y-152400000D03*
X146050000Y-152400000D03*
D19*
X151130000Y-149860000D03*
D20*
X148590000Y-149860000D03*
X146050000Y-149860000D03*
D19*
X151130000Y-147320000D03*
D20*
X148590000Y-147320000D03*
X146050000Y-147320000D03*
D19*
X151130000Y-144780000D03*
D20*
X148590000Y-144780000D03*
X146050000Y-144780000D03*
D19*
X151130000Y-142240000D03*
D20*
X148590000Y-142240000D03*
X146050000Y-142240000D03*
D19*
X151130000Y-139700000D03*
D20*
X148590000Y-139700000D03*
X146050000Y-139700000D03*
D19*
X151130000Y-137160000D03*
D20*
X148590000Y-137160000D03*
X146050000Y-137160000D03*
D19*
X151130000Y-134620000D03*
D20*
X148590000Y-134620000D03*
X146050000Y-134620000D03*
D19*
X151130000Y-132080000D03*
D20*
X148590000Y-132080000D03*
X146050000Y-132080000D03*
D19*
X151130000Y-129540000D03*
D20*
X148590000Y-129540000D03*
X146050000Y-129540000D03*
D19*
X151130000Y-127000000D03*
D20*
X148590000Y-127000000D03*
X146050000Y-127000000D03*
D17*
X128270000Y-127000000D03*
X128270000Y-129540000D03*
X128270000Y-132080000D03*
X128270000Y-134620000D03*
X128270000Y-137160000D03*
X128270000Y-139700000D03*
X128270000Y-142240000D03*
X128270000Y-144780000D03*
X128270000Y-147320000D03*
X128270000Y-149860000D03*
X128270000Y-152400000D03*
X128270000Y-154940000D03*
X128270000Y-157480000D03*
X128270000Y-160020000D03*
X135890000Y-160020000D03*
X135890000Y-157480000D03*
X135890000Y-154940000D03*
X135890000Y-152400000D03*
X135890000Y-149860000D03*
X135890000Y-147320000D03*
X135890000Y-144780000D03*
X135890000Y-142240000D03*
X135890000Y-139700000D03*
X135890000Y-137160000D03*
X135890000Y-134620000D03*
X135890000Y-132080000D03*
X135890000Y-129540000D03*
X135890000Y-127000000D03*
D23*
X111252000Y-121920000D03*
X153162000Y-121920000D03*
X111252000Y-112395000D03*
D24*
X127635000Y-85090000D03*
X133985000Y-89535000D03*
X142875000Y-90170000D03*
X137795000Y-90804986D03*
X149250400Y-99644200D03*
X146761200Y-108839000D03*
X139623800Y-109778800D03*
X144145000Y-108762800D03*
X153035000Y-79375000D03*
D25*
X109220000Y-105410000D02*
X110490000Y-105410000D01*
X122710000Y-88900000D02*
X125095000Y-91285000D01*
X117475000Y-88900000D02*
X122710000Y-88900000D01*
X114300000Y-85725000D02*
X117475000Y-88900000D01*
X111125000Y-85725000D02*
X114300000Y-85725000D01*
X109220000Y-87630000D02*
X111125000Y-85725000D01*
X109220000Y-92710000D02*
X109220000Y-87630000D01*
X112395000Y-95885000D02*
X109220000Y-92710000D01*
X112395000Y-103505000D02*
X112395000Y-95885000D01*
X110490000Y-105410000D02*
X112395000Y-103505000D01*
X134874000Y-73660000D02*
X134874000Y-85090000D01*
X134874000Y-85090000D02*
X135255000Y-85090000D01*
X127635000Y-85090000D02*
X135255000Y-85090000D01*
X135255000Y-85090000D02*
X136525000Y-85090000D01*
X125095000Y-91285000D02*
X118900000Y-91285000D01*
X118900000Y-91285000D02*
X118745000Y-91440000D01*
X136525000Y-96520000D02*
X134620000Y-96520000D01*
X129385000Y-91285000D02*
X125095000Y-91285000D01*
X134620000Y-96520000D02*
X129385000Y-91285000D01*
D26*
X123825000Y-66675000D02*
X127635000Y-66675000D01*
X127635000Y-66675000D02*
X131445000Y-66675000D01*
X131445000Y-66675000D02*
X131826000Y-67056000D01*
X131826000Y-67056000D02*
X131826000Y-70612000D01*
X131826000Y-70612000D02*
X134874000Y-73660000D01*
X134874000Y-73660000D02*
X136525000Y-73660000D01*
X151765000Y-92710000D02*
X154305000Y-92710000D01*
X149225000Y-92710000D02*
X151765000Y-92710000D01*
X151765000Y-104140000D02*
X154305000Y-104140000D01*
X149225000Y-104140000D02*
X151765000Y-104140000D01*
D25*
X118745000Y-86360000D02*
X123670000Y-86360000D01*
X123670000Y-86360000D02*
X125095000Y-87785000D01*
X131445000Y-87630000D02*
X151638000Y-87630000D01*
X151638000Y-87630000D02*
X154305000Y-90297000D01*
X154305000Y-90297000D02*
X154305000Y-92710000D01*
X125095000Y-87785000D02*
X131290000Y-87785000D01*
X131290000Y-87785000D02*
X131445000Y-87630000D01*
X127000000Y-104140000D02*
X127000000Y-101600000D01*
X113820000Y-87785000D02*
X112395000Y-87785000D01*
X115570000Y-89535000D02*
X113820000Y-87785000D01*
X115570000Y-91440000D02*
X115570000Y-89535000D01*
X117475000Y-93345000D02*
X115570000Y-91440000D01*
X121920000Y-93345000D02*
X117475000Y-93345000D01*
X124460000Y-95885000D02*
X121920000Y-93345000D01*
X124460000Y-99060000D02*
X124460000Y-95885000D01*
X127000000Y-101600000D02*
X124460000Y-99060000D01*
D26*
X135255000Y-68326000D02*
X147320000Y-68326000D01*
X147320000Y-68326000D02*
X148844000Y-69850000D01*
X135255000Y-69850000D02*
X135255000Y-68326000D01*
X135255000Y-68326000D02*
X135255000Y-68199000D01*
X149225000Y-69850000D02*
X148844000Y-69850000D01*
X135255000Y-68199000D02*
X135255000Y-66675000D01*
X141605000Y-104140000D02*
X141605000Y-104489250D01*
X141605000Y-104489250D02*
X139414250Y-106680000D01*
X139414250Y-106680000D02*
X132717792Y-106680000D01*
X132717792Y-106680000D02*
X131445000Y-106680000D01*
X128905000Y-114300000D02*
X127635000Y-114300000D01*
X130175000Y-115570000D02*
X128905000Y-114300000D01*
X151973534Y-115570000D02*
X130175000Y-115570000D01*
X154305000Y-114300000D02*
X153243534Y-114300000D01*
X153243534Y-114300000D02*
X151973534Y-115570000D01*
X154305000Y-109220000D02*
X154305000Y-107950000D01*
X151130000Y-83185000D02*
X149225000Y-81280000D01*
X154940000Y-83185000D02*
X151130000Y-83185000D01*
X156210000Y-84455000D02*
X154940000Y-83185000D01*
X156210000Y-106045000D02*
X156210000Y-84455000D01*
X154305000Y-107950000D02*
X156210000Y-106045000D01*
X125095000Y-101949250D02*
X125095000Y-105410000D01*
X125095000Y-105410000D02*
X127635000Y-107950000D01*
X120015000Y-96520000D02*
X120015000Y-96869250D01*
X120015000Y-96869250D02*
X125095000Y-101949250D01*
X134692106Y-89535000D02*
X133985000Y-89535000D01*
X138779250Y-89535000D02*
X134692106Y-89535000D01*
X141605000Y-92360750D02*
X138779250Y-89535000D01*
X141605000Y-92710000D02*
X141605000Y-92360750D01*
X142875000Y-94615000D02*
X144145000Y-95885000D01*
X142875000Y-90170000D02*
X142875000Y-94615000D01*
X144145000Y-95885000D02*
X144145000Y-96520000D01*
X137795000Y-90804986D02*
X137795000Y-94615000D01*
X137795000Y-94615000D02*
X139065000Y-95885000D01*
X139065000Y-95885000D02*
X139065000Y-96520000D01*
X149250400Y-99644200D02*
X149225000Y-99618800D01*
X149225000Y-99618800D02*
X149174200Y-99618800D01*
X149174200Y-99618800D02*
X146685000Y-97129600D01*
X146685000Y-97129600D02*
X146685000Y-96520000D01*
X136525000Y-113030000D02*
X136525000Y-111683800D01*
X145694400Y-109905800D02*
X146761200Y-108839000D01*
X141478000Y-109905800D02*
X145694400Y-109905800D01*
X140563600Y-110820200D02*
X141478000Y-109905800D01*
X137388600Y-110820200D02*
X140563600Y-110820200D01*
X136525000Y-111683800D02*
X137388600Y-110820200D01*
X133997700Y-111010700D02*
X133997700Y-113017300D01*
X133997700Y-113017300D02*
X133985000Y-113030000D01*
X135204200Y-109804200D02*
X133997700Y-111010700D01*
X133997700Y-111010700D02*
X133985000Y-111023400D01*
X139598400Y-109804200D02*
X135204200Y-109804200D01*
X139623800Y-109778800D02*
X139598400Y-109804200D01*
X131445000Y-113030000D02*
X131445000Y-110896400D01*
X133578600Y-108762800D02*
X144145000Y-108762800D01*
X131445000Y-110896400D02*
X133578600Y-108762800D01*
X144145000Y-81280000D02*
X144145000Y-80645000D01*
X144145000Y-80645000D02*
X145415000Y-79375000D01*
X145415000Y-79375000D02*
X153035000Y-79375000D01*
X151765000Y-85090000D02*
X149860000Y-83185000D01*
X147955000Y-83185000D02*
X146685000Y-81915000D01*
X149860000Y-83185000D02*
X147955000Y-83185000D01*
X146685000Y-81915000D02*
X146685000Y-81280000D01*
M02*
